# xmcd
#
# Track frame offsets:
#	150
#	14340
#	37845
#	52350
#	71650
#	90187
#	109010
#	129185
#	144237
#	158209
#	182655
#
# Disc length: 2667 seconds
#
# Revision: 0
# Processed by: cddbd v1.4PL0 Copyright (c) Steve Scherf et al.
# Submitted via: dBpowerAMP V4.0
#
DISCID=870a690b
DTITLE=Cattle Call - Good Life
DYEAR=1900
DGENRE=Country
TTITLE0=LogTrucks and Snowmobile Trails
TTITLE1=This Time Around
TTITLE2=Drown
TTITLE3=Nowember Skies
TTITLE4=There is a Light
TTITLE5=Change
TTITLE6=Too Old to Ramble
TTITLE7=Mention of Your Name
TTITLE8=Yippee Yi Yeah
TTITLE9=The Champagne Song
TTITLE10=Must Have Been Rain
EXTD=
EXTT0=
EXTT1=
EXTT2=
EXTT3=
EXTT4=
EXTT5=
EXTT6=
EXTT7=
EXTT8=
EXTT9=
EXTT10=
PLAYORDER=
